<svg version="1.0" xmlns="http://www.w3.org/2000/svg"
 width="16" height="16" viewBox="0 0 512.000000 512.000000"
 preserveAspectRatio="xMidYMid meet">

<g transform="translate(0.000000,512.000000) scale(0.100000,-0.100000)"
fill="#000000" stroke="none">
<path d="M2375 5110 c-167 -18 -392 -80 -532 -147 -211 -102 -371 -374 -429
-728 -18 -111 -24 -402 -11 -526 8 -70 10 -76 36 -85 39 -15 58 -65 71 -184
18 -180 113 -597 186 -819 92 -279 201 -471 321 -566 74 -58 196 -118 298
-147 69 -20 102 -23 235 -22 139 0 164 3 245 28 178 54 309 143 400 271 59 82
144 261 195 410 40 118 118 420 140 545 6 35 18 76 26 91 19 38 31 98 43 217
12 114 28 155 70 176 25 14 29 21 34 83 11 107 8 379 -4 478 -43 355 -214 667
-425 773 -244 123 -602 183 -899 152z m595 -649 c80 -10 175 -25 212 -31 l67
-12 15 -46 c8 -26 29 -107 47 -181 26 -112 44 -159 106 -284 l74 -149 4 -207
c2 -113 7 -223 13 -243 9 -34 7 -39 -20 -65 -41 -39 -61 -81 -97 -207 -41
-140 -72 -206 -121 -250 -73 -66 -126 -58 -240 34 -119 96 -110 94 -465 97
-373 3 -377 2 -496 -92 -96 -76 -140 -93 -192 -76 -71 24 -124 110 -173 281
-35 124 -48 152 -84 194 l-31 34 11 69 c7 37 13 151 14 253 l2 185 73 145 c65
128 79 165 117 319 24 96 47 178 51 182 10 10 219 44 388 63 176 20 528 14
725 -13z m-90 -1768 c0 -21 -63 -113 -96 -143 -69 -60 -137 -85 -235 -85 -79
0 -92 3 -154 35 -73 38 -133 98 -160 163 l-15 37 330 0 c181 0 330 -3 330 -7z"/>
<path d="M2094 3760 c-72 -10 -173 -48 -187 -71 -14 -22 -1 -66 22 -74 11 -3
48 4 83 16 37 13 100 23 153 26 50 3 96 10 103 16 16 12 16 62 -1 75 -19 16
-104 22 -173 12z"/>
<path d="M2870 3763 c-36 -7 -50 -22 -50 -53 0 -15 6 -32 13 -37 6 -6 55 -13
107 -16 62 -4 117 -14 158 -28 47 -18 67 -21 80 -13 24 16 27 66 5 86 -41 37
-241 75 -313 61z"/>
<path d="M2102 3554 c-51 -36 -84 -163 -46 -178 25 -9 44 12 44 50 0 39 40 92
59 79 17 -10 41 -68 41 -99 0 -29 28 -42 48 -22 26 25 0 117 -44 155 -39 34
-68 39 -102 15z"/>
<path d="M2906 3549 c-49 -39 -82 -143 -53 -167 25 -21 46 -3 53 44 8 53 32
88 55 79 20 -7 39 -47 39 -80 0 -23 23 -55 40 -55 44 0 21 131 -31 175 -37 30
-68 32 -103 4z"/>
<path d="M1140 1098 c-500 -282 -561 -319 -620 -378 -156 -153 -238 -352 -256
-617 l-7 -103 2303 0 2303 0 -7 103 c-19 265 -101 464 -256 617 -59 59 -120
96 -615 375 -301 171 -552 311 -557 313 -4 2 -217 -127 -472 -287 -255 -160
-466 -291 -469 -291 -4 0 -182 131 -396 290 -214 160 -391 290 -393 290 -2 0
-253 -141 -558 -312z"/>
</g>
</svg>

